#!OML:ASF H:\GeneralSubjects\Female5\Project 1\Capture day 1\Session 1\Female5.ASF
:FULLY-SPECIFIED
:DEGREES
210
root 25.1877 16.129 4.82361 -30.4364 -92.7886 44.2429
lowerback 18.074 -2.16091 -15.0683
upperback -11.179 -5.98274 11.6489
thorax -21.1671 1.11592 26.4921
lowerneck -12.9885 3.53055 -2.46773
upperneck 38.3059 7.20868 -8.63025
head 16.2054 0.659016 -2.33077
rclavicle 6.38099e-014 6.36111e-015
rhumerus -55.7377 46.4111 -80.7005
rradius 42.4915
rwrist -20.9222
rhand -25.3947 -18.8721
rfingers 7.12502
rthumb 1.13036 -48.8489
lclavicle 6.38099e-014 6.36111e-015
lhumerus -68.6835 23.914 64.8957
lradius 35.025
lwrist -9.44662
lhand -28.3897 28.1049
lfingers 7.12502
lthumb -1.76233 58.0774
rfemur -20.5489 -4.18303 27.8121
rtibia 47.9724
rfoot -8.59327 -12.8931
rtoes -41.9973
lfemur -19.8743 -21.1885 -23.039
ltibia 12.3213
lfoot -21.6245 -16.057
ltoes -13.4665
211
root 25.4287 16.1117 4.80326 -45.2266 -92.6649 59.0841
lowerback 17.8344 -2.37752 -14.534
upperback -11.2735 -6.09737 11.8716
thorax -21.0991 0.986476 26.4739
lowerneck -12.9513 3.54251 -2.53114
upperneck 38.4457 7.2885 -8.77982
head 16.2852 0.646961 -2.38378
rclavicle -5.33737e-014 -2.8625e-014
rhumerus -55.6328 46.7622 -80.4069
rradius 42.833
rwrist -21.4145
rhand -26.0921 -19.1521
rfingers 7.12502
rthumb 0.456785 -49.1313
lclavicle -5.33737e-014 -2.8625e-014
lhumerus -69.6261 24.2047 64.2091
lradius 34.5712
lwrist -9.96677
lhand -28.0787 28.3226
lfingers 7.12502
lthumb -1.46191 58.2974
rfemur -17.0951 -4.04634 27.915
rtibia 46.1393
rfoot -8.19248 -11.2701
rtoes -40.7212
lfemur -21.1014 -22.0282 -21.9245
ltibia 12.21
lfoot -22.1961 -15.3873
ltoes -13.4505
212
root 25.6731 16.0804 4.77755 -60.712 -92.7249 74.5786
lowerback 17.7107 -2.58472 -13.948
upperback -11.3804 -6.20292 12.0654
thorax -21.1396 0.87334 26.4
lowerneck -12.9787 3.55598 -2.60563
upperneck 38.6435 7.36299 -8.87163
head 16.4077 0.63399 -2.41352
rclavicle -3.8763e-015 9.54166e-015
rhumerus -55.599 47.1022 -80.2267
rradius 43.0933
rwrist -21.9372
rhand -26.965 -19.36
rfingers 7.12502
rthumb -0.386302 -49.3394
lclavicle -3.8763e-015 9.54166e-015
lhumerus -70.4907 24.4694 63.5068
lradius 34.1225
lwrist -10.4796
lhand -27.8194 28.2544
lfingers 7.12502
lthumb -1.21149 58.2307
rfemur -13.4989 -3.62114 28.1629
rtibia 43.3253
rfoot -7.81417 -10.2484
rtoes -39.2124
lfemur -22.4065 -22.5638 -20.8294
ltibia 12.2432
lfoot -22.4939 -14.6373
ltoes -13.4356
213
root 25.9221 16.0367 4.74676 -74.7867 -92.9142 88.6213
lowerback 17.6443 -2.7745 -13.3995
upperback -11.4685 -6.30062 12.2368
thorax -21.1969 0.770168 26.3202
lowerneck -13.0602 3.55901 -2.72008
upperneck 38.8353 7.43103 -8.93019
head 16.5375 0.617359 -2.42157
rclavicle -2.32578e-014 -2.54444e-014
rhumerus -55.5479 47.4366 -80.0672
rradius 43.2798
rwrist -22.4808
rhand -27.8422 -19.4528
rfingers 7.12502
rthumb -1.23351 -49.4289
lclavicle -2.32578e-014 -2.54444e-014
lhumerus -71.2097 24.7518 62.8733
lradius 33.7337
lwrist -10.9093
lhand -27.5933 28.0456
lfingers 7.12502
lthumb -0.993151 58.023
rfemur -9.79848 -2.86482 28.5328
rtibia 39.5206
rfoot -7.52267 -10.0259
rtoes -37.2753
lfemur -23.7695 -22.8512 -19.8382
ltibia 12.4051
lfoot -22.5526 -13.7989
ltoes -13.3844
214
root 26.1765 15.9834 4.71166 -86.9202 -93.1544 100.7
lowerback 17.6305 -2.94272 -12.9349
upperback -11.5467 -6.39812 12.3778
thorax -21.2728 0.682359 26.2595
lowerneck -13.1744 3.55855 -2.87038
upperneck 38.994 7.50925 -8.98132
head 16.6575 0.603177 -2.4156
rclavicle 2.98177e-014 6.36111e-014
rhumerus -55.4557 47.7447 -79.892
rradius 43.3854
rwrist -22.8794
rhand -28.4728 -19.5251
rfingers 7.12502
rthumb -1.84256 -49.4969
lclavicle 2.98177e-014 6.36111e-014
lhumerus -71.7963 25.0442 62.3594
lradius 33.4609
lwrist -11.1805
lhand -27.9534 28.4461
lfingers 7.12502
lthumb -1.34089 58.4216
rfemur -6.06774 -1.76034 29.0132
rtibia 34.7659
rfoot -7.62073 -10.3386
rtoes -35.2775
lfemur -25.1912 -22.9719 -19.0078
ltibia 12.6816
lfoot -22.447 -12.8907
ltoes -13.3253
215
root 26.437 15.9236 4.67298 -97.4159 -93.393 111.151
lowerback 17.6427 -3.08879 -12.5712
upperback -11.6199 -6.49698 12.4865
thorax -21.3532 0.609264 26.2238
lowerneck -13.3183 3.56178 -3.05673
upperneck 39.0997 7.61608 -9.04483
head 16.7589 0.597628 -2.39988
rclavicle 4.57205e-015 -5.08889e-014
rhumerus -55.3248 48.0406 -79.72
rradius 43.4178
rwrist -23.0035
rhand -28.7832 -19.7711
rfingers 7.12502
rthumb -2.14229 -49.7401
lclavicle 4.57205e-015 -5.08889e-014
lhumerus -72.2652 25.3539 61.9823
lradius 33.3511
lwrist -11.2563
lhand -28.4935 29.1146
lfingers 7.12502
lthumb -1.86252 59.0862
rfemur -2.44665 -0.316902 29.6086
rtibia 29.3027
rfoot -8.28761 -10.9452
rtoes -33.0368
lfemur -26.6888 -22.9968 -18.345
ltibia 13.043
lfoot -22.2697 -11.9445
ltoes -13.3294
216
root 26.705 15.8606 4.63128 -106.509 -93.617 120.251
lowerback 17.6454 -3.20942 -12.3037
upperback -11.6903 -6.58749 12.5753
thorax -21.4218 0.552299 26.22
lowerneck -13.4811 3.57385 -3.27527
upperneck 39.1341 7.76556 -9.14533
head 16.8313 0.604938 -2.38265
rclavicle -6.93758e-014 2.22639e-014
rhumerus -55.1855 48.3705 -79.6035
rradius 43.393
rwrist -22.872
rhand -28.7615 -20.2762
rfingers 7.12502
rthumb -2.12137 -50.2454
lclavicle -6.93758e-014 2.22639e-014
lhumerus -72.6267 25.6902 61.7677
lradius 33.4402
lwrist -11.114
lhand -29.1454 29.7864
lfingers 7.12502
lthumb -2.49211 59.7516
rfemur 0.870602 1.42108 30.3311
rtibia 23.5291
rfoot -9.70682 -11.581
rtoes -30.6082
lfemur -28.2787 -22.9903 -17.7926
ltibia 13.4244
lfoot -22.1307 -11.0004
ltoes -13.4203
217
root 26.9819 15.798 4.58739 -114.075 -93.8345 127.911
lowerback 17.6145 -3.30467 -12.0911
upperback -11.7576 -6.65477 12.6616
thorax -21.4726 0.511114 26.238
lowerneck -13.6571 3.60409 -3.51196
upperneck 39.0935 7.97427 -9.30595
head 16.8746 0.630777 -2.37391
rclavicle -1.59028e-015 -9.54166e-015
rhumerus -55.0519 48.7845 -79.588
rradius 43.3195
rwrist -22.6028
rhand -28.439 -20.8125
rfingers 7.12502
rthumb -1.80989 -50.7845
lclavicle -1.59028e-015 -9.54166e-015
lhumerus -72.89 26.0718 61.7218
lradius 33.7415
lwrist -10.7649
lhand -29.7233 30.2454
lfingers 7.12502
lthumb -3.05025 60.2033
rfemur 3.68412 3.38977 31.177
rtibia 17.8906
rfoot -11.93 -12.0824
rtoes -27.8614
lfemur -29.9769 -23.0106 -17.2477
ltibia 13.7581
lfoot -22.1493 -10.1212
ltoes -13.6345
218
root 27.2695 15.7396 4.54217 -119.623 -94.0637 133.672
lowerback 17.5478 -3.37931 -11.8465
upperback -11.8212 -6.67881 12.7639
thorax -21.521 0.483951 26.2405
lowerneck -13.8731 3.65512 -3.78928
upperneck 38.9952 8.24523 -9.49803
head 16.9022 0.675068 -2.35692
rclavicle -9.97899e-014 1.59028e-014
rhumerus -54.8903 49.3054 -79.6695
rradius 43.209
rwrist -22.2704
rhand -27.916 -21.0538
rfingers 7.12502
rthumb -1.30482 -51.0295
lclavicle -9.97899e-014 1.59028e-014
lhumerus -73.0746 26.5284 61.7928
lradius 34.2275
lwrist -10.2317
lhand -29.9524 30.2702
lfingers 7.12502
lthumb -3.27148 60.2248
rfemur 5.80759 5.49518 32.1289
rtibia 12.8254
rfoot -14.7967 -12.4451
rtoes -24.4765
lfemur -31.8108 -23.0964 -16.5616
ltibia 13.9921
lfoot -22.4254 -9.4043
ltoes -14.0585
219
root 27.5694 15.6894 4.49653 -122.74 -94.3208 137.134
lowerback 17.4644 -3.42856 -11.5109
upperback -11.8827 -6.63657 12.9039
thorax -21.6012 0.480923 26.222
lowerneck -14.123 3.73115 -4.08545
upperneck 38.8544 8.57933 -9.72958
head 16.9226 0.738884 -2.34016
rclavicle -1.72943e-014 -9.85972e-014
rhumerus -54.7098 49.939 -79.8403
rradius 43.088
rwrist -22.0662
rhand -27.3872 -21.2422
rfingers 7.12502
rthumb -0.794093 -51.2205
lclavicle -1.72943e-014 -9.85972e-014
lhumerus -73.1781 27.0399 62.0373
lradius 34.8817
lwrist -9.55142
lhand -29.8889 30.1319
lfingers 7.12502
lthumb -3.21017 60.0874
rfemur 7.11892 7.62245 33.1398
rtibia 8.63241
rfoot -17.9617 -12.7531
rtoes -20.2134
lfemur -33.7978 -23.2543 -15.5928
ltibia 14.1005
lfoot -22.973 -8.98053
ltoes -14.7823
220
root 27.8812 15.6508 4.45142 -123.401 -94.6082 138.252
lowerback 17.4015 -3.45172 -11.0448
upperback -11.9391 -6.51796 13.0866
thorax -21.7435 0.506406 26.1683
lowerneck -14.3953 3.83054 -4.39066
upperneck 38.6766 8.96275 -9.98511
head 16.9342 0.820097 -2.32095
rclavicle -5.9039e-014 6.04305e-014
rhumerus -54.4927 50.6561 -80.0648
rradius 42.9643
rwrist -21.9754
rhand -26.8643 -21.203
rfingers 7.12502
rthumb -0.288985 -51.1826
lclavicle -5.9039e-014 6.04305e-014
lhumerus -73.194 27.5643 62.511
lradius 35.6892
lwrist -8.73334
lhand -29.7099 29.7708
lfingers 7.12502
lthumb -3.03727 59.7289
rfemur 7.61537 9.66419 34.1382
rtibia 5.37441
rfoot -21.0424 -13.0624
rtoes -15.1821
lfemur -35.9083 -23.451 -14.2747
ltibia 14.0824
lfoot -23.7228 -8.999
ltoes -15.827
221
root 28.2026 15.6258 4.40735 -121.956 -94.9124 137.329
lowerback 17.4054 -3.44271 -10.4668
upperback -11.9776 -6.32171 13.305
thorax -21.9612 0.565643 26.0869
lowerneck -14.6897 3.95221 -4.68195
upperneck 38.464 9.3823 -10.2525
head 16.937 0.918732 -2.3
rclavicle -1.308e-013 2.44903e-013
rhumerus -54.2622 51.4427 -80.3415
rradius 42.8657
rwrist -21.9531
rhand -26.4927 -20.9784
rfingers 7.12502
rthumb 0.069891 -50.9582
lclavicle -1.308e-013 2.44903e-013
lhumerus -73.1056 28.0523 63.2608
lradius 36.6134
lwrist -7.82077
lhand -29.4183 29.4656
lfingers 7.12502
lthumb -2.75568 59.4275
rfemur 7.42311 11.5931 35.0651
rtibia 2.97107
rfoot -23.7214 -13.5002
rtoes -9.48975
lfemur -38.0438 -23.6286 -12.6338
ltibia 13.9341
lfoot -24.5915 -9.592
ltoes -17.137
